<svg xmlns="http://www.w3.org/2000/svg" width="134.233" height="134.145" viewBox="0 0 134.233 134.145"><g transform="translate(-963.13 -99.942)"><path d="M1024.305,109.748l2.943-2.943L1027,99.942c-1.278.062-2.552.16-3.806.29Z" fill="#f1bcd6"/><path d="M1044.586,101.392l-2.865,13.893,2.192,2.192,4.424-15.134C1047.017,101.969,1045.779,101.656,1044.586,101.392Z" fill="#f1bcd6"/><path d="M1012.547,102.235l4.286,14.987,2.233-2.235-2.724-13.682C1015.115,101.565,1013.863,101.873,1012.547,102.235Z" fill="#f1bcd6"/><path d="M968.317,141.107c-.481,1.152-.945,2.361-1.384,3.613l16.735,5.664,1.853-1.852Z" fill="#f1bcd6"/><path d="M1002.37,105.925l8.248,17.511,1.789-1.79-6.467-17.234C1004.732,104.883,1003.537,105.39,1002.37,105.925Z" fill="#f1bcd6"/><path d="M992.944,111.2l12.171,17.735,1.536-1.537-10.473-18.229C995.052,109.838,993.97,110.518,992.944,111.2Z" fill="#f1bcd6"/><path d="M984.509,117.909,999.957,134.1l1.45-1.45-14.02-17.282C986.429,116.163,985.465,117.016,984.509,117.909Z" fill="#f1bcd6"/><path d="M973.3,131.5c-.7,1.125-1.361,2.243-1.963,3.338l18.21,9.665,1.591-1.591Z" fill="#f1bcd6"/><path d="M979.706,122.858c-.85.973-1.671,1.97-2.456,2.978l17.615,13.352,1.466-1.466Z" fill="#f1bcd6"/><path d="M1036.523,110.086l1.214-9.8c-1.321-.151-2.593-.257-3.852-.326l-.3,7.186Z" fill="#f1bcd6"/><path d="M1093.709,145.149c-.446-1.3-.9-2.5-1.362-3.646l-17.141,7.266,1.88,1.88Z" fill="#f1bcd6"/><path d="M1096.4,155.633c-.213-1.233-.464-2.478-.764-3.769l-13.949,3.388,2.347,2.348Z" fill="#f1bcd6"/><path d="M1089.343,135.2c-.607-1.121-1.249-2.236-1.923-3.327l-17.855,11.255,1.588,1.588Z" fill="#f1bcd6"/><path d="M1064.645,109.372,1054.037,127.6l1.54,1.539,12.3-17.7C1066.837,110.728,1065.752,110.036,1064.645,109.372Z" fill="#f1bcd6"/><path d="M1083.5,126.163c-.747-.967-1.55-1.948-2.437-2.971l-16.7,14.733,1.463,1.463Z" fill="#f1bcd6"/><path d="M1054.953,104.576l-6.625,17.315,1.779,1.779,8.42-17.565C1057.407,105.584,1056.228,105.079,1054.953,104.576Z" fill="#f1bcd6"/><path d="M1073.426,115.623l-14.149,17.218,1.442,1.441,15.548-16.107C1075.29,117.249,1074.351,116.406,1073.426,115.623Z" fill="#f1bcd6"/><path d="M1010.808,231.2l4.607-15.9-1.964-1.964-6.324,16.637C1008.324,230.412,1009.559,230.824,1010.808,231.2Z" fill="#f1bcd6"/><path d="M1072.029,219.453l-13.976-17.131-1.479,1.48,12.39,17.951C1070.027,221,1071.054,220.231,1072.029,219.453Z" fill="#f1bcd6"/><path d="M1092.763,166.326l4.6.011c-.014-1.186-.067-2.413-.161-3.788l-7.627.589Z" fill="#f1bcd6"/><path d="M1000.7,227.225l8.6-18.045-1.643-1.641L997.29,225.41C998.469,226.08,999.594,226.68,1000.7,227.225Z" fill="#f1bcd6"/><path d="M1085.2,175.173l11.4,1.858c.183-1.229.335-2.5.455-3.805l-9.162-.747Z" fill="#f1bcd6"/><path d="M976.766,157.286l2.326-2.327-14.143-3.538c-.289,1.224-.55,2.489-.779,3.776Z" fill="#f1bcd6"/><path d="M963.419,173.081c.118,1.322.27,2.605.45,3.835l11.332-1.83-2.724-2.723Z" fill="#f1bcd6"/><path d="M963.315,162.11c-.1,1.407-.166,2.722-.185,3.984h4.827l3.316-3.316Z" fill="#f1bcd6"/><path d="M982.262,182.148l-2.082-2.082-14.926,3.658c.32,1.236.683,2.486,1.084,3.732Z" fill="#f1bcd6"/><path d="M993.628,193.513l-1.518-1.518-18.151,11.477c.735,1.134,1.459,2.187,2.193,3.186Z" fill="#f1bcd6"/><path d="M998.736,198.622,997.3,197.19l-16.743,14.842c.836.922,1.722,1.842,2.642,2.746Z" fill="#f1bcd6"/><path d="M988.252,188.139l-1.7-1.7L968.813,194c.5,1.136,1.056,2.285,1.668,3.476Z" fill="#f1bcd6"/><path d="M991.439,221.692l12.423-17.944-1.481-1.48-14.01,17.117C989.337,220.155,990.365,220.928,991.439,221.692Z" fill="#f1bcd6"/><path d="M1030.076,218.655l.2.242,50.292-52.837-21.683-21.365-28.645,29.056L1001.6,144.695,979.918,166.06l50.125,52.663Z" fill="#f1bcd6"/><rect width="10.139" height="10.139" transform="matrix(0.707, -0.707, 0.707, 0.707, 1023.07, 149.888)" fill="#f1bcd6"/><rect width="10.14" height="10.14" transform="translate(1009.385 137.291) rotate(-44.996)" fill="#f1bcd6"/><rect width="10.141" height="10.141" transform="translate(1022.761 123.29) rotate(-44.996)" fill="#f1bcd6"/><rect width="10.141" height="10.141" transform="translate(1036.761 137.292) rotate(-45.006)" fill="#f1bcd6"/><path d="M1053.24,230.019l-6.277-16.607-1.979,1.98,4.55,15.854C1050.806,230.864,1052.046,230.453,1053.24,230.019Z" fill="#f1bcd6"/><path d="M1037.687,222.69l1.287,10.818c1.341-.172,2.6-.369,3.82-.6l-2.577-12.752Z" fill="#f1bcd6"/><path d="M1063.068,225.482l-10.306-17.869-1.651,1.65,8.534,18.03C1060.769,226.742,1061.9,226.145,1063.068,225.482Z" fill="#f1bcd6"/><path d="M1068.309,192.067l-1.5,1.5,17.464,13.176c.732-.994,1.45-2.033,2.174-3.144Z" fill="#f1bcd6"/><path d="M1080.2,180.176l-2.056,2.055,15.962,5.359c.405-1.243.767-2.481,1.087-3.695Z" fill="#f1bcd6"/><path d="M1077.19,214.872c.932-.911,1.823-1.834,2.664-2.757l-16.723-14.871-1.439,1.44Z" fill="#f1bcd6"/><path d="M1073.867,186.508l-1.7,1.7,17.781,9.389c.6-1.166,1.161-2.33,1.672-3.476Z" fill="#f1bcd6"/><path d="M1021.372,233.488l1.321-10.908-2.519-2.52-2.619,12.826C1018.748,233.112,1020.008,233.311,1021.372,233.488Z" fill="#f1bcd6"/><path d="M1028.508,228.4l-.229,5.656c1.257.046,2.529.048,3.785,0l-.212-5.532-1.608,1.607Z" fill="#f1bcd6"/></g></svg>