<svg xmlns="http://www.w3.org/2000/svg" width="12" height="12" viewBox="0 0 12 12"><g transform="translate(-1205.729 374.16)"><path d="M1214.743-362.16h-6.028a2.989,2.989,0,0,1-2.986-2.986v-6.027a2.99,2.99,0,0,1,2.986-2.987h6.028a2.99,2.99,0,0,1,2.986,2.987v6.027A2.989,2.989,0,0,1,1214.743-362.16Zm-6.028-11.1a2.094,2.094,0,0,0-2.092,2.091v6.027a2.094,2.094,0,0,0,2.092,2.091h6.028a2.092,2.092,0,0,0,2.089-2.091v-6.027a2.092,2.092,0,0,0-2.089-2.091Z" fill="#001650"/><path d="M1211.729-364.727a3.437,3.437,0,0,1-3.434-3.433,3.437,3.437,0,0,1,3.434-3.432,3.436,3.436,0,0,1,3.431,3.432A3.436,3.436,0,0,1,1211.729-364.727Zm0-5.97a2.539,2.539,0,0,0-2.538,2.537,2.54,2.54,0,0,0,2.538,2.538,2.541,2.541,0,0,0,2.537-2.538A2.54,2.54,0,0,0,1211.729-370.7Z" fill="#001650"/><path d="M1215.711-371.794a.718.718,0,0,1-.718.719.718.718,0,0,1-.719-.719.719.719,0,0,1,.719-.719A.718.718,0,0,1,1215.711-371.794Z" fill="#001650"/></g></svg>