<svg xmlns="http://www.w3.org/2000/svg" width="11.676" height="11.676" viewBox="0 0 11.676 11.676"><g transform="translate(-1206.125 355.152)"><rect width="11.676" height="11.676" rx="1.459" transform="translate(1206.125 -355.152)" fill="#001650"/><path d="M1210.609-346.349a4.231,4.231,0,0,0,4.26-4.26c0-.065,0-.129-.005-.193a3.04,3.04,0,0,0,.747-.775,2.985,2.985,0,0,1-.859.235,1.5,1.5,0,0,0,.658-.828,2.982,2.982,0,0,1-.951.363,1.5,1.5,0,0,0-1.093-.473,1.5,1.5,0,0,0-1.5,1.5,1.482,1.482,0,0,0,.039.342,4.251,4.251,0,0,1-3.086-1.564,1.487,1.487,0,0,0-.2.752,1.494,1.494,0,0,0,.666,1.246,1.484,1.484,0,0,1-.678-.187v.019a1.5,1.5,0,0,0,1.2,1.468,1.512,1.512,0,0,1-.4.053,1.531,1.531,0,0,1-.281-.027,1.5,1.5,0,0,0,1.4,1.039,3,3,0,0,1-1.86.641,3.232,3.232,0,0,1-.357-.02,4.244,4.244,0,0,0,2.3.672" fill="#fff"/></g></svg>