<svg xmlns="http://www.w3.org/2000/svg" width="12" height="12" viewBox="0 0 12 12"><g transform="translate(-1184.663 -11.668)"><path d="M1193.677,23.668h-6.028a2.989,2.989,0,0,1-2.986-2.986V14.654a2.989,2.989,0,0,1,2.986-2.986h6.028a2.99,2.99,0,0,1,2.986,2.986v6.028A2.99,2.99,0,0,1,1193.677,23.668Zm-6.028-11.1a2.093,2.093,0,0,0-2.091,2.09v6.028a2.094,2.094,0,0,0,2.091,2.091h6.028a2.094,2.094,0,0,0,2.09-2.091V14.654a2.093,2.093,0,0,0-2.09-2.09Z" fill="#f1bcd6"/><path d="M1190.663,21.1a3.433,3.433,0,1,1,3.432-3.433A3.438,3.438,0,0,1,1190.663,21.1Zm0-5.97a2.537,2.537,0,1,0,2.537,2.537A2.54,2.54,0,0,0,1190.663,15.131Z" fill="#f1bcd6"/><path d="M1194.645,14.034a.719.719,0,1,1-.718-.719A.718.718,0,0,1,1194.645,14.034Z" fill="#f1bcd6"/></g></svg>