<svg xmlns="http://www.w3.org/2000/svg" width="80.323" height="31.269" viewBox="0 0 80.323 31.269"><g transform="translate(-746.716 -11.938)"><path d="M786.2,20.941l-.665-1.2-.657-1.247-.665.573.05,1.71-1,.194.093-2.249.034-2.316-.051-2.047.985-.169-.067,2.064-.017,1.752,1.019-.944.892-1.027,1.213.135-.967.909-.809.834.825,1.533.867,1.3Z" fill="#f1bcd6"/><path d="M791.961,20.8l-.961.16-1.01-.16-.792-.573-.329-.766-.126-.918.126-.977.329-.733.792-.582.96-.235,1.011.235.791.582.329.733.126.977-.126.918-.329.766Zm.21-1.441.11-.841-.11-.86-.5-.614-.682-.22-.716.22-.5.614-.109.86.109.841.438.624.741.244.809-.244Z" fill="#f1bcd6"/><path d="M798.047,20.941l-.665-1.2-.657-1.247-.665.573.049,1.71-1,.194.092-2.249.034-2.316-.05-2.047.985-.169-.067,2.064-.017,1.752,1.019-.944L798,16.039l1.213.135-.968.909-.808.834.825,1.533.867,1.3Z" fill="#f1bcd6"/><path d="M803.806,20.8l-.96.16-1.012-.16-.791-.573-.329-.766-.126-.918.126-.977.329-.733.791-.582.961-.235,1.011.235.792.582.328.733.126.977-.126.918-.328.766Zm.21-1.441.109-.841-.109-.86-.5-.614-.683-.22-.716.22-.5.614-.109.86.109.841.438.624.741.244.808-.244Z" fill="#f1bcd6"/><path d="M806.952,21.009l.118-2.451-.05-2.333.85-.287.076.826.556-.556.69-.2.616.093.26.918-.985-.126-.53.227-.539.716-.093,1.541.051,1.39Z" fill="#f1bcd6"/><path d="M814.579,20.8l-.96.16-1.011-.16-.792-.573-.329-.766-.126-.918.126-.977.329-.733.792-.582.96-.235,1.011.235.792.582.328.733.126.977-.126.918-.328.766Zm.21-1.441.11-.841-.11-.86-.5-.614-.683-.22-.715.22-.5.614-.11.86.11.841.437.624.741.244.809-.244Z" fill="#f1bcd6"/><path d="M786.482,31.157l.067-1.769-.067-1.735-.295-.548-.574-.168-.656.3-.632.834-.092,1.457.05,1.415-1.019.21.118-2.442.017-2.1-.034-2.139.993-.2-.075,1.55.008,1.154.523-.615,1.052-.27,1.053.329.48.792.026,2.358.067,1.339Z" fill="#f1bcd6"/><path d="M792.762,31.115l-.228-.514-.488.362-1.247.143-1.044-.286-.388-.876.219-1.036.961-.707,1-.169.876-.009-.017-.5-.253-.312-.741-.194-.707.093-.994.472-.076-.9.716-.329,1.045-.185.993.143.582.413.3.429.051,1.449.042,1.566.346.775Zm-.337-1.4.025-.961-1.3.085-.665.353-.186.59.261.463.808.068.734-.228Z" fill="#f1bcd6"/><path d="M795.479,31.157l.118-2.451-.051-2.333.851-.287.076.826.555-.556.691-.2.615.093.261.918-.986-.127-.53.228-.539.715-.093,1.542.051,1.39Z" fill="#f1bcd6"/><path d="M803.511,30.837l-.641.219-.792.084-1.01-.194-.724-.573-.329-.766-.126-.918.126-.985.329-.724.791-.582.961-.236,1.011.169.7.581.386.792.111,1.2-1.264.042-1.12-.033-1.12.05.066.455.4.665.876.278.9-.176.741-.6.312.834Zm-.262-3.091-.412-.548-.7-.218-.734.218-.539.632-.042.337.851.042.885-.051.741-.042Z" fill="#f1bcd6"/><path d="M809.42,30.921l-1.062.185-.859-.16-.429-.286-.043.43-.858-.135.067-1.6.05-2.41-.042-2.434.944-.227-.034,1.9-.008.42.218-.159.952-.321,1.07.2.632.581.329.766.126.977-.126.918-.295.767Zm.017-1.541.109-.75-.109-.758-.405-.716-.682-.185-.741.185-.48.615-.025,1.28.008.379.463.666.741.21.716-.21Z" fill="#f1bcd6"/><path d="M815.5,31.115l-.227-.514-.489.362-1.247.143-1.044-.286-.387-.876.218-1.036.961-.707,1-.169.876-.009-.016-.5-.253-.312-.742-.194-.707.093-.994.472-.076-.9.716-.329,1.045-.185.993.143.582.413.3.429.051,1.449.042,1.566.345.775Zm-.337-1.4.026-.961-1.306.085-.665.353-.186.59.261.463.809.068.733-.228Z" fill="#f1bcd6"/><path d="M818.215,31.157l.118-2.451-.051-2.333.851-.287.076.826.556-.556.69-.2.615.093.261.918-.985-.127-.53.228-.54.715-.092,1.542.05,1.39Z" fill="#f1bcd6"/><path d="M826.247,30.837l-.64.219-.792.084-1.01-.194-.725-.573-.329-.766-.126-.918.126-.985.329-.724.791-.582.961-.236,1.011.169.7.581.387.792.11,1.2-1.264.042-1.12-.033-1.12.05.067.455.4.665.876.278.9-.176.742-.6.311.834Zm-.262-3.091-.412-.548-.7-.218-.733.218-.539.632-.042.337.85.042.885-.051.741-.042Z" fill="#f1bcd6"/><path d="M786.524,41.263l-.084-.471-.447.3-.859.16-1.062-.186-.631-.581-.295-.766-.126-.918.126-.977.329-.767.632-.581,1.069-.2.952.32.228.169-.018-1.07-.033-1.019.943-.236-.042,2.021.042,2.4.051,2.206Zm-.177-1.642.042-1.061-.017-.632-.489-.623-.749-.186-.674.186-.4.715-.11.758.11.75.4.716.707.211.75-.211Z" fill="#f1bcd6"/><path d="M792.778,40.985l-.64.219-.792.085-1.01-.194-.725-.573-.329-.766-.126-.919.126-.985.329-.724.791-.582.961-.236,1.011.169.7.581.387.792.11,1.2-1.263.042-1.12-.034-1.121.05.067.455.4.666.876.278.9-.177.741-.6.311.834Zm-.261-3.091-.412-.547-.7-.219-.733.219-.539.632-.042.336.85.042.885-.05.741-.042Z" fill="#f1bcd6"/><path d="M798.359,41.1l-1.112.193-1.12-.169-.522-.4-.337-.606.69-.581.439.766.808.211.792-.168.228-.447L798,39.444l-.868-.286-.96-.3-.64-.539-.227-.868.632-.9,1.246-.27,1.221.219.716.682-.513.666-.666-.615-.716-.16-.716.152-.253.421.211.4.859.295.977.3.632.5.211.825-.186.691Z" fill="#f1bcd6"/><path d="M801.076,35.6l.059-.977,1-.093.067,1.121Zm.026,5.719.084-2.628-.059-2.223,1-.152-.059,2.5.084,2.324Z" fill="#f1bcd6"/><path d="M807.581,42.434l-.784.185-1.01.059-.9-.084-.657-.337-.27-.674.219-.589.3-.312.295-.2-.295-.16-.211-.429.127-.4.412-.43-.345-.4-.143-1.027.539-.885,1.213-.463.952.143.353.228.488-.253.43-.11.5.615-.564.185-.37.261.159.413-.27.977-.623.447-.749.219-.775-.042-.379.277-.059.169.514.168,1.448.017.616.152.446.387.219.716-.228.7Zm-.177-1.163-.134-.328-.413-.227-.666-.026-.514.034-.6.345-.193.371.142.3.632.135.725-.008.455-.084.421-.186Zm-.329-3.4-.21-.548-.674-.219-.673.2-.355.572.2.641.742.176.708-.244Z" fill="#f1bcd6"/><path d="M813.465,41.289l.067-1.752-.067-1.735-.3-.548-.641-.169-.648.3-.572.834-.093,1.457.051,1.415-1.02.194.118-2.425-.05-2.342.918-.194.008.8.556-.615,1.053-.269,1.052.329.481.791.025,2.358.068,1.365Z" fill="#f1bcd6"/><path d="M760.976,14.223l.686-.685-.058-1.6c-.3.014-.6.037-.888.067Z" fill="#f1bcd6"/><path d="M765.7,12.276l-.669,3.238.512.511,1.03-3.527C766.271,12.411,765.982,12.337,765.7,12.276Z" fill="#f1bcd6"/><path d="M758.234,12.472l1,3.493.522-.52-.637-3.19C758.834,12.316,758.542,12.388,758.234,12.472Z" fill="#f1bcd6"/><path d="M747.925,21.534c-.111.268-.221.55-.322.842l3.9,1.32.433-.432Z" fill="#f1bcd6"/><path d="M755.862,13.332l1.923,4.082L758.2,17l-1.509-4.017C756.414,13.089,756.135,13.208,755.862,13.332Z" fill="#f1bcd6"/><path d="M753.666,14.563,756.5,18.7l.358-.359-2.442-4.249C754.156,14.245,753.9,14.4,753.666,14.563Z" fill="#f1bcd6"/><path d="M751.7,16.126l3.6,3.773.337-.338-3.268-4.028C752.148,15.719,751.922,15.917,751.7,16.126Z" fill="#f1bcd6"/><path d="M749.086,19.3c-.164.262-.317.522-.457.778l4.245,2.253.37-.371Z" fill="#f1bcd6"/><path d="M750.58,17.28q-.3.339-.572.694l4.1,3.112.342-.341Z" fill="#f1bcd6"/><path d="M763.823,14.3l.285-2.286c-.309-.035-.606-.059-.9-.076l-.071,1.676Z" fill="#f1bcd6"/><path d="M777.154,22.476c-.1-.3-.208-.583-.317-.85l-4,1.693.438.439Z" fill="#f1bcd6"/><path d="M777.782,24.919c-.049-.287-.108-.577-.177-.878l-3.253.79.547.547Z" fill="#f1bcd6"/><path d="M776.137,20.157c-.141-.262-.292-.522-.448-.776L771.526,22l.371.369Z" fill="#f1bcd6"/><path d="M770.379,14.136l-2.473,4.249.36.358,2.869-4.125C770.891,14.452,770.638,14.291,770.379,14.136Z" fill="#f1bcd6"/><path d="M774.775,18.05c-.173-.225-.361-.454-.568-.693l-3.893,3.435.34.341Z" fill="#f1bcd6"/><path d="M768.12,13.018l-1.544,4.036.415.415,1.963-4.1C768.692,13.253,768.417,13.135,768.12,13.018Z" fill="#f1bcd6"/><path d="M772.426,15.592l-3.3,4.014.336.336,3.624-3.754C772.86,15.972,772.642,15.775,772.426,15.592Z" fill="#f1bcd6"/><path d="M757.83,42.535l1.074-3.706-.459-.458-1.473,3.877C757.25,42.351,757.538,42.447,757.83,42.535Z" fill="#f1bcd6"/><path d="M772.1,39.8,768.843,35.8l-.345.345,2.889,4.185Q771.757,40.069,772.1,39.8Z" fill="#f1bcd6"/><path d="M776.934,27.412l1.072,0c0-.277-.016-.563-.036-.883l-1.779.137Z" fill="#f1bcd6"/><path d="M755.473,41.608l2-4.206-.382-.382-2.416,4.165C754.953,41.341,755.216,41.481,755.473,41.608Z" fill="#f1bcd6"/><path d="M775.172,29.475l2.656.433c.043-.287.078-.584.107-.888l-2.136-.174Z" fill="#f1bcd6"/><path d="M749.9,25.305l.542-.542-3.3-.825c-.068.285-.128.58-.182.88Z" fill="#f1bcd6"/><path d="M746.783,28.987c.028.308.063.607.106.893l2.64-.426-.634-.635Z" fill="#f1bcd6"/><path d="M746.759,26.43c-.025.327-.039.634-.043.928h1.125l.773-.773Z" fill="#f1bcd6"/><path d="M751.176,31.1l-.485-.485-3.481.853c.075.288.16.579.253.87Z" fill="#f1bcd6"/><path d="M753.824,33.75l-.353-.354-4.231,2.675c.171.264.34.51.511.743Z" fill="#f1bcd6"/><path d="M755.016,34.94l-.334-.333-3.9,3.46q.294.323.616.64Z" fill="#f1bcd6"/><path d="M752.572,32.5l-.4-.4-4.134,1.764c.117.264.245.532.389.81Z" fill="#f1bcd6"/><path d="M753.315,40.318l2.9-4.183-.346-.344L752.6,39.78C752.824,39.96,753.065,40.14,753.315,40.318Z" fill="#f1bcd6"/><path d="M762.321,39.61l.047.057,11.724-12.316-5.054-4.98-6.678,6.773-6.678-6.773-5.054,4.98,11.685,12.276Z" fill="#f1bcd6"/><rect width="2.364" height="2.364" transform="translate(760.688 23.581) rotate(-45.009)" fill="#f1bcd6"/><rect width="2.363" height="2.363" transform="translate(757.498 20.644) rotate(-45)" fill="#f1bcd6"/><rect width="2.364" height="2.364" transform="translate(760.615 17.381) rotate(-45.009)" fill="#f1bcd6"/><rect width="2.364" height="2.364" transform="translate(763.88 20.644) rotate(-45)" fill="#f1bcd6"/><path d="M767.721,42.259l-1.463-3.87-.462.461,1.062,3.695C767.153,42.457,767.442,42.361,767.721,42.259Z" fill="#f1bcd6"/><path d="M764.1,40.551l.3,2.521c.312-.039.606-.086.89-.139l-.6-2.972Z" fill="#f1bcd6"/><path d="M770.012,41.2l-2.4-4.166-.384.385,1.989,4.2C769.476,41.5,769.74,41.356,770.012,41.2Z" fill="#f1bcd6"/><path d="M771.233,33.413l-.349.349,4.071,3.071c.171-.231.338-.473.506-.732Z" fill="#f1bcd6"/><path d="M774.006,30.641l-.48.479,3.722,1.249c.093-.29.179-.578.252-.861Z" fill="#f1bcd6"/><path d="M773.3,38.728c.217-.212.425-.427.621-.643l-3.9-3.465-.335.335Z" fill="#f1bcd6"/><path d="M772.528,32.116l-.4.4,4.144,2.189c.141-.272.272-.544.39-.811Z" fill="#f1bcd6"/><path d="M760.292,43.068l.309-2.543-.588-.587-.611,2.99C759.682,42.98,759.974,43.027,760.292,43.068Z" fill="#f1bcd6"/><path d="M761.955,41.881,761.9,43.2c.294.011.59.011.883,0l-.05-1.289-.375.374Z" fill="#f1bcd6"/></g></svg>