<svg xmlns="http://www.w3.org/2000/svg" width="11.676" height="11.676" viewBox="0 0 11.676 11.676"><g transform="translate(-1185.06 -30.675)"><rect width="11.676" height="11.676" rx="1.459" transform="translate(1185.06 30.675)" fill="#f1bcd6"/><path d="M1189.543,39.479a4.231,4.231,0,0,0,4.26-4.26c0-.065,0-.13,0-.194a3.043,3.043,0,0,0,.747-.775,3,3,0,0,1-.86.236,1.512,1.512,0,0,0,.659-.828,3.024,3.024,0,0,1-.951.363,1.5,1.5,0,0,0-2.59,1.024,1.467,1.467,0,0,0,.038.341,4.25,4.25,0,0,1-3.086-1.564,1.5,1.5,0,0,0,.464,2,1.481,1.481,0,0,1-.678-.187v.019a1.5,1.5,0,0,0,1.2,1.468,1.5,1.5,0,0,1-.394.052,1.456,1.456,0,0,1-.282-.027,1.5,1.5,0,0,0,1.4,1.04,3.023,3.023,0,0,1-2.217.62,4.236,4.236,0,0,0,2.295.673" fill="#fff"/></g></svg>